<?xml version="1.0" encoding="iso-8859-1"?>
<!-- Generator: Adobe Illustrator 19.2.1, SVG Export Plug-In . SVG Version: 6.00 Build 0)  -->
<svg version="1.1" id="Layer_1" xmlns="http://www.w3.org/2000/svg" xmlns:xlink="http://www.w3.org/1999/xlink" x="0px" y="0px"
	 viewBox="0 0 200 200" style="enable-background:new 0 0 200 200;" xml:space="preserve">
<style type="text/css">
	.st0{fill:none;stroke:#717D85;stroke-width:2.3295;stroke-miterlimit:10;}
	.st1{fill:none;stroke:#717D85;stroke-width:2.5;stroke-miterlimit:10;}
	.st2{fill:none;stroke:#717D85;stroke-width:2;stroke-linejoin:bevel;stroke-miterlimit:10;}
	.st3{fill:none;stroke:#717D85;stroke-width:2;stroke-miterlimit:10;}
	.st4{fill:#FFFFFF;}
	.st5{fill:#274D69;}
	.st6{fill:#43A7D1;}
	.st7{fill:none;stroke:#274D69;stroke-miterlimit:10;}
</style>
<g id="horizontal-single_x60_44x53">
	<polyline class="st0" points="31.765,7.544 11.965,18.944 11.965,44.044 	"/>
	<line class="st0" x1="6.565" y1="15.844" x2="26.365" y2="4.444"/>
	<line class="st0" x1="11.965" y1="18.944" x2="31.765" y2="7.544"/>
	<line class="st0" x1="17.365" y1="22.044" x2="37.165" y2="10.644"/>
	<polyline class="st0" points="6.665,20.944 6.665,41.744 6.565,41.744 1.265,38.744 1.165,38.744 1.165,12.744 20.965,1.344 
		42.565,13.744 42.565,32.644 42.565,39.544 22.765,50.944 17.465,47.944 17.465,27.344 	"/>
	<polyline class="st0" points="42.565,13.744 22.765,25.144 22.765,44.044 37.165,35.744 	"/>
	<line class="st0" x1="28.665" y1="29.044" x2="43.065" y2="20.744"/>
	<line class="st0" x1="27.665" y1="35.744" x2="37.265" y2="30.244"/>
</g>
<g id="horizontal-cluster_x60_119x117">
	<polyline class="st0" points="26.965,42.946 10.265,52.546 10.265,73.746 	"/>
	<line class="st0" x1="5.765" y1="49.946" x2="22.465" y2="40.346"/>
	<line class="st0" x1="10.265" y1="52.546" x2="26.965" y2="42.946"/>
	<line class="st0" x1="14.865" y1="55.146" x2="31.565" y2="45.546"/>
	<polyline class="st0" points="5.865,54.246 5.865,71.746 5.665,71.746 1.265,69.246 1.165,69.246 1.165,47.346 17.965,37.746 
		36.065,48.146 36.065,64.146 36.065,69.946 19.365,79.546 14.965,77.046 14.965,59.646 	"/>
	<polyline class="st0" points="36.065,48.146 19.365,57.746 19.365,73.746 31.565,66.746 	"/>
	<line class="st0" x1="24.365" y1="61.146" x2="36.565" y2="54.146"/>
	<line class="st0" x1="23.565" y1="66.746" x2="31.665" y2="62.146"/>
	<polyline class="st0" points="67.565,42.946 50.765,52.546 50.765,73.746 	"/>
	<line class="st0" x1="46.265" y1="49.946" x2="62.965" y2="40.346"/>
	<line class="st0" x1="50.765" y1="52.546" x2="67.565" y2="42.946"/>
	<line class="st0" x1="55.365" y1="55.146" x2="72.065" y2="45.546"/>
	<polyline class="st0" points="46.365,54.246 46.365,71.746 46.265,71.746 41.765,69.246 41.765,69.246 41.765,47.346 
		58.465,37.746 76.665,48.146 76.665,64.146 76.665,69.946 59.865,79.546 55.465,77.046 55.465,59.646 	"/>
	<polyline class="st0" points="76.665,48.146 59.865,57.746 59.865,73.746 72.065,66.746 	"/>
	<line class="st0" x1="64.865" y1="61.146" x2="77.065" y2="54.146"/>
	<line class="st0" x1="64.065" y1="66.746" x2="72.165" y2="62.146"/>
	<polyline class="st0" points="108.065,42.946 91.365,52.546 91.365,73.746 	"/>
	<line class="st0" x1="86.765" y1="49.946" x2="103.465" y2="40.346"/>
	<line class="st0" x1="91.365" y1="52.546" x2="108.065" y2="42.946"/>
	<line class="st0" x1="95.865" y1="55.146" x2="112.565" y2="45.546"/>
	<polyline class="st0" points="86.865,54.246 86.865,71.746 86.765,71.746 82.265,69.246 82.265,69.246 82.265,47.346 
		98.965,37.746 117.165,48.146 117.165,64.146 117.165,69.946 100.465,79.546 95.965,77.046 95.965,59.646 	"/>
	<polyline class="st0" points="117.165,48.146 100.465,57.746 100.465,73.746 112.565,66.746 	"/>
	<line class="st0" x1="105.465" y1="61.146" x2="117.565" y2="54.146"/>
	<line class="st0" x1="104.665" y1="66.746" x2="112.665" y2="62.146"/>
	<polyline class="st0" points="45.565,6.646 28.865,16.246 28.865,37.446 	"/>
	<line class="st0" x1="24.365" y1="13.646" x2="41.065" y2="4.046"/>
	<line class="st0" x1="28.865" y1="16.246" x2="45.565" y2="6.646"/>
	<line class="st0" x1="33.365" y1="18.846" x2="50.165" y2="9.246"/>
	<polyline class="st0" points="24.465,17.946 24.465,35.446 24.265,35.446 19.865,32.946 19.765,32.946 19.765,11.046 36.465,1.346 
		54.665,11.846 54.665,27.846 54.665,33.646 37.965,43.246 33.465,40.646 33.465,23.346 	"/>
	<polyline class="st0" points="54.665,11.846 37.965,21.446 37.965,37.446 50.165,30.446 	"/>
	<line class="st0" x1="42.965" y1="24.746" x2="55.165" y2="17.746"/>
	<line class="st0" x1="42.165" y1="30.446" x2="50.165" y2="25.746"/>
	<polyline class="st0" points="86.065,6.646 69.365,16.246 69.365,37.446 	"/>
	<line class="st0" x1="64.865" y1="13.646" x2="81.565" y2="4.046"/>
	<line class="st0" x1="69.365" y1="16.246" x2="86.065" y2="6.646"/>
	<line class="st0" x1="73.965" y1="18.846" x2="90.665" y2="9.246"/>
	<polyline class="st0" points="64.965,17.946 64.965,35.446 64.765,35.446 60.365,32.946 60.265,32.946 60.265,11.046 77.065,1.346 
		95.165,11.846 95.165,27.846 95.165,33.646 78.465,43.246 74.065,40.646 74.065,23.346 	"/>
	<polyline class="st0" points="95.165,11.846 78.465,21.446 78.465,37.446 90.665,30.446 	"/>
	<line class="st0" x1="83.465" y1="24.746" x2="95.665" y2="17.746"/>
	<line class="st0" x1="82.665" y1="30.446" x2="90.765" y2="25.746"/>
	<polyline class="st0" points="48.765,78.646 32.065,88.246 32.065,109.446 	"/>
	<line class="st0" x1="27.465" y1="85.646" x2="44.165" y2="75.946"/>
	<line class="st0" x1="32.065" y1="88.246" x2="48.765" y2="78.646"/>
	<line class="st0" x1="36.565" y1="90.846" x2="53.265" y2="81.246"/>
	<polyline class="st0" points="27.565,89.846 27.565,107.446 27.465,107.446 22.965,104.946 22.965,104.946 22.965,83.046 
		39.665,73.346 57.865,83.846 57.865,99.846 57.865,105.646 41.065,115.246 36.665,112.646 36.665,95.346 	"/>
	<polyline class="st0" points="57.865,83.846 41.065,93.446 41.065,109.446 53.265,102.446 	"/>
	<line class="st0" x1="46.065" y1="96.746" x2="58.265" y2="89.746"/>
	<line class="st0" x1="45.265" y1="102.446" x2="53.365" y2="97.746"/>
	<polyline class="st0" points="89.265,78.646 72.565,88.246 72.565,109.446 	"/>
	<line class="st0" x1="67.965" y1="85.646" x2="84.765" y2="75.946"/>
	<line class="st0" x1="72.565" y1="88.246" x2="89.265" y2="78.646"/>
	<line class="st0" x1="77.065" y1="90.846" x2="93.765" y2="81.246"/>
	<polyline class="st0" points="68.065,89.846 68.065,107.446 67.965,107.446 63.565,104.946 63.465,104.946 63.465,83.046 
		80.165,73.346 98.365,83.846 98.365,99.846 98.365,105.646 81.665,115.246 77.165,112.646 77.165,95.346 	"/>
	<polyline class="st0" points="98.365,83.846 81.665,93.446 81.665,109.446 93.765,102.446 	"/>
	<line class="st0" x1="86.665" y1="96.746" x2="98.765" y2="89.746"/>
	<line class="st0" x1="85.865" y1="102.446" x2="93.865" y2="97.746"/>
</g>
<g id="vertical-redundant_x60_125x82">
	<polyline class="st1" points="13.426,27.75 2.326,18.15 2.326,24.05 13.426,33.65 31.426,33.45 	"/>
	<polyline class="st1" points="35.626,34.25 46.726,24.75 46.726,30.35 35.626,39.25 13.426,39.25 0.826,28.15 	"/>
	<polyline class="st1" points="46.726,36.05 35.626,44.95 14.926,44.95 	"/>
	<polyline class="st1" points="12.826,44.95 1.826,35.35 1.826,41.25 12.826,50.75 35.026,50.75 46.826,41.15 	"/>
	<polyline class="st1" points="21.326,10.85 30.026,10.85 38.626,18.35 46.726,10.85 35.626,1.25 13.326,1.25 2.326,10.85 
		16.126,23.05 31.626,23.05 34.826,20.75 	"/>
	<polyline class="st1" points="11.726,9.65 20.926,17.45 30.326,17.45 	"/>
	<polyline class="st1" points="15.126,6.15 33.426,6.15 39.026,11.45 	"/>
	<polyline class="st1" points="93.326,27.75 111.626,27.75 122.726,18.15 122.726,15.55 	"/>
	<polyline class="st1" points="89.426,27.75 78.326,18.15 78.326,24.05 89.426,33.65 107.526,33.45 	"/>
	<polyline class="st1" points="111.626,34.25 122.726,24.75 122.726,30.35 111.626,39.25 89.426,39.25 76.826,28.15 	"/>
	<polyline class="st1" points="122.726,36.05 111.626,44.95 91.026,44.95 	"/>
	<polyline class="st1" points="88.926,44.95 77.826,35.35 77.826,41.25 88.926,50.75 111.126,50.75 122.826,41.15 	"/>
	<polyline class="st1" points="97.326,10.85 106.126,10.85 114.626,18.35 122.726,10.85 111.626,1.25 89.426,1.25 78.326,10.85 
		92.126,23.05 107.626,23.05 110.826,20.75 	"/>
	<polyline class="st1" points="87.726,9.65 96.926,17.45 106.326,17.45 	"/>
	<polyline class="st1" points="91.126,6.15 109.426,6.15 115.026,11.45 	"/>
	<polyline class="st2" points="57.226,76.95 57.226,66.45 62.826,63.05 68.426,66.45 68.426,76.95 62.826,73.65 62.826,69.25 	"/>
	<line class="st2" x1="57.226" y1="76.95" x2="62.826" y2="73.65"/>
	<path class="st3" d="M62.826,73.65"/>
	<polyline class="st3" points="62.826,57.65 62.826,60.35 62.826,63.35 	"/>
	<polyline class="st2" points="73.126,63.65 62.826,69.85 52.426,63.65 	"/>
	<polygon class="st2" points="73.126,74.05 62.826,80.25 52.426,74.05 52.426,63.65 62.826,57.45 73.126,63.65 	"/>
	<polyline class="st1" points="17.326,27.75 35.626,27.75 46.726,18.15 	"/>
	<line class="st1" x1="78.126" y1="40.45" x2="54.426" y2="40.45"/>
	<polyline class="st1" points="58.926,45.75 53.626,40.45 58.926,35.15 	"/>
	<line class="st1" x1="46.726" y1="10.55" x2="69.626" y2="10.35"/>
	<polyline class="st1" points="65.026,5.05 70.326,10.35 65.026,15.65 	"/>
</g>
<g id="vertical-single_x60_49x52">
	<polyline class="st1" points="17.326,27.75 35.626,27.75 46.726,18.15 46.726,15.55 	"/>
	<polyline class="st1" points="13.426,27.75 2.326,18.15 2.326,24.05 13.426,33.65 31.426,33.45 	"/>
	<polyline class="st1" points="35.626,34.25 46.726,24.75 46.726,30.35 35.626,39.25 13.426,39.25 0.826,28.15 	"/>
	<polyline class="st1" points="46.726,36.05 35.626,44.95 14.926,44.95 	"/>
	<polyline class="st1" points="12.826,44.95 1.826,35.35 1.826,41.25 12.826,50.75 35.026,50.75 46.826,41.15 	"/>
	<polyline class="st1" points="21.326,10.85 30.026,10.85 38.626,18.35 46.726,10.85 35.626,1.25 13.326,1.25 2.326,10.85 
		16.126,23.05 31.526,23.05 34.826,20.75 	"/>
	<polyline class="st1" points="11.726,9.65 20.926,17.45 30.326,17.45 	"/>
	<polyline class="st1" points="15.126,6.15 33.426,6.15 38.926,11.45 	"/>
</g>
<g id="check_x60_27x27">
	<circle class="st4" cx="13.5" cy="13.5" r="13.5"/>
	<path id="_x3E_check-mark" class="st5" d="M11.9,19.2c-0.2,0-0.4,0-0.6-0.1c-0.2-0.1-0.4-0.2-0.5-0.4l-3.2-3.3
		c-0.2-0.2-0.3-0.3-0.4-0.6c-0.1-0.2-0.1-0.4-0.1-0.6s0-0.4,0.1-0.6c0.1-0.2,0.2-0.4,0.4-0.5c0.2-0.2,0.3-0.3,0.6-0.4
		c0.2-0.1,0.4-0.1,0.6-0.1s0.4,0,0.6,0.1s0.4,0.2,0.5,0.4l2.1,2.1l5.2-5.2c0.2-0.2,0.3-0.3,0.5-0.4c0.2-0.1,0.4-0.1,0.6-0.1
		c0.2,0,0.4,0,0.6,0.1c0.2,0.1,0.4,0.2,0.5,0.4s0.3,0.3,0.4,0.6c0.1,0.2,0.1,0.4,0.1,0.6c0,0.2,0,0.4-0.1,0.6
		c-0.1,0.2-0.2,0.4-0.4,0.6L13,18.8c-0.2,0.2-0.3,0.3-0.5,0.4C12.3,19.2,12.1,19.2,11.9,19.2z"/>
</g>
<g id="next-btn_x60_81x37">
	<polygon class="st6" points="68.994,0 0,0 0,36 68.994,36 80.183,18 	"/>
</g>
<g id="cancel-x_x60_12x12">
	<line class="st7" x1="0.354" y1="0.354" x2="10.954" y2="10.954"/>
	<line class="st7" x1="10.954" y1="0.354" x2="0.354" y2="10.954"/>
</g>
<g id="back-arrow_x60_6x12">
	<polyline class="st7" points="5.153,11.024 0.653,5.624 5.153,0.324 	"/>
</g>
<g id="monitor_x60_23x25">
	<polyline class="st2" points="5.8,20.359 5.8,9.859 11.3,6.459 16.9,9.859 16.9,20.359 11.3,16.959 11.3,12.559 	"/>
	<line class="st2" x1="5.8" y1="20.359" x2="11.3" y2="16.959"/>
	<path class="st3" d="M11.3,16.959"/>
	<polyline class="st3" points="11.3,1.059 11.3,3.759 11.3,6.659 	"/>
	<polyline class="st2" points="21.7,7.059 11.3,13.259 1,7.059 	"/>
	<polygon class="st2" points="21.7,17.459 11.3,23.659 1,17.459 1,7.059 11.3,0.859 21.7,7.059 	"/>
</g>
</svg>
