<?xml version="1.0" encoding="iso-8859-1"?>
<!-- Generator: Adobe Illustrator 19.2.1, SVG Export Plug-In . SVG Version: 6.00 Build 0)  -->
<svg version="1.1" id="Layer_1" xmlns="http://www.w3.org/2000/svg" xmlns:xlink="http://www.w3.org/1999/xlink" x="0px" y="0px"
	 viewBox="0 0 200 200" style="enable-background:new 0 0 200 200;" xml:space="preserve">
<style type="text/css">
	.st0{fill:none;stroke:#717D85;stroke-width:2.3295;stroke-miterlimit:10;}
	.st1{fill:none;stroke:#717D85;stroke-width:2.5;stroke-miterlimit:10;}
	.st2{fill:none;stroke:#717D85;stroke-width:2;stroke-linejoin:bevel;stroke-miterlimit:10;}
	.st3{fill:none;stroke:#717D85;stroke-width:2;stroke-miterlimit:10;}
	.st4{fill:#FFFFFF;}
	.st5{fill:#274D69;}
	.st6{fill:#49617A;}
	.st7{fill:none;stroke:#274D69;stroke-miterlimit:10;}
</style>
<g id="horizontal-single_x60_44x53">
	<polyline class="st0" points="31.756,7.541 11.936,18.94 11.936,44.056 	"/>
	<line class="st0" x1="6.551" y1="15.842" x2="26.371" y2="4.441"/>
	<line class="st0" x1="11.936" y1="18.94" x2="31.756" y2="7.541"/>
	<line class="st0" x1="17.323" y1="22.037" x2="37.141" y2="10.639"/>
	<polyline class="st0" points="6.681,20.911 6.681,41.729 6.502,41.729 1.244,38.706 1.165,38.706 1.165,12.744 20.983,1.344 
		42.528,13.736 42.528,32.656 42.528,39.548 22.708,50.948 17.452,47.924 17.452,27.38 	"/>
	<polyline class="st0" points="42.528,13.736 22.708,25.136 22.708,44.056 37.141,35.754 	"/>
	<line class="st0" x1="28.636" y1="29.081" x2="43.069" y2="20.78"/>
	<line class="st0" x1="27.683" y1="35.762" x2="37.243" y2="30.263"/>
</g>
<g id="horizontal-cluster_x60_119x117">
	<polyline class="st0" points="26.974,42.894 10.253,52.511 10.253,73.7 	"/>
	<line class="st0" x1="5.71" y1="49.897" x2="22.431" y2="40.279"/>
	<line class="st0" x1="10.253" y1="52.511" x2="26.974" y2="42.894"/>
	<line class="st0" x1="14.798" y1="55.124" x2="31.518" y2="45.508"/>
	<polyline class="st0" points="5.819,54.173 5.819,71.737 5.668,71.737 1.233,69.187 1.165,69.187 1.165,47.283 17.885,37.666 
		36.063,48.12 36.063,64.083 36.063,69.897 19.341,79.515 14.906,76.964 14.906,59.632 	"/>
	<polyline class="st0" points="36.063,48.12 19.341,57.738 19.341,73.7 31.518,66.697 	"/>
	<line class="st0" x1="24.342" y1="61.067" x2="36.519" y2="54.063"/>
	<line class="st0" x1="23.538" y1="66.703" x2="31.604" y2="62.063"/>
	<polyline class="st0" points="67.5,42.894 50.778,52.511 50.778,73.7 	"/>
	<line class="st0" x1="46.235" y1="49.897" x2="62.957" y2="40.279"/>
	<line class="st0" x1="50.778" y1="52.511" x2="67.5" y2="42.894"/>
	<line class="st0" x1="55.323" y1="55.124" x2="72.043" y2="45.508"/>
	<polyline class="st0" points="46.344,54.173 46.344,71.737 46.193,71.737 41.758,69.187 41.691,69.187 41.691,47.283 58.41,37.666 
		76.588,48.12 76.588,64.083 76.588,69.897 59.866,79.515 55.432,76.964 55.432,59.632 	"/>
	<polyline class="st0" points="76.588,48.12 59.866,57.738 59.866,73.7 72.043,66.697 	"/>
	<line class="st0" x1="64.867" y1="61.067" x2="77.044" y2="54.063"/>
	<line class="st0" x1="64.063" y1="66.703" x2="72.129" y2="62.063"/>
	<polyline class="st0" points="108.025,42.894 91.303,52.511 91.303,73.7 	"/>
	<line class="st0" x1="86.76" y1="49.897" x2="103.482" y2="40.279"/>
	<line class="st0" x1="91.303" y1="52.511" x2="108.025" y2="42.894"/>
	<line class="st0" x1="95.848" y1="55.124" x2="112.568" y2="45.508"/>
	<polyline class="st0" points="86.869,54.173 86.869,71.737 86.719,71.737 82.283,69.187 82.216,69.187 82.216,47.283 
		98.936,37.666 117.113,48.12 117.113,64.083 117.113,69.897 100.391,79.515 95.957,76.964 95.957,59.632 	"/>
	<polyline class="st0" points="117.113,48.12 100.391,57.738 100.391,73.7 112.568,66.697 	"/>
	<line class="st0" x1="105.392" y1="61.067" x2="117.569" y2="54.063"/>
	<line class="st0" x1="104.588" y1="66.703" x2="112.654" y2="62.063"/>
	<polyline class="st0" points="45.549,6.572 28.827,16.189 28.827,37.379 	"/>
	<line class="st0" x1="24.284" y1="13.576" x2="41.005" y2="3.957"/>
	<line class="st0" x1="28.827" y1="16.189" x2="45.549" y2="6.572"/>
	<line class="st0" x1="33.372" y1="18.802" x2="50.092" y2="9.186"/>
	<polyline class="st0" points="24.393,17.852 24.393,35.416 24.242,35.416 19.807,32.865 19.739,32.865 19.739,10.962 36.459,1.344 
		54.637,11.799 54.637,27.761 54.637,33.576 37.915,43.193 33.48,40.643 33.48,23.31 	"/>
	<polyline class="st0" points="54.637,11.799 37.915,21.416 37.915,37.379 50.092,30.375 	"/>
	<line class="st0" x1="42.916" y1="24.745" x2="55.093" y2="17.742"/>
	<line class="st0" x1="42.112" y1="30.381" x2="50.178" y2="25.742"/>
	<polyline class="st0" points="86.074,6.572 69.352,16.189 69.352,37.379 	"/>
	<line class="st0" x1="64.809" y1="13.576" x2="81.531" y2="3.957"/>
	<line class="st0" x1="69.352" y1="16.189" x2="86.074" y2="6.572"/>
	<line class="st0" x1="73.897" y1="18.802" x2="90.617" y2="9.186"/>
	<polyline class="st0" points="64.918,17.852 64.918,35.416 64.768,35.416 60.332,32.865 60.265,32.865 60.265,10.962 76.984,1.344 
		95.162,11.799 95.162,27.761 95.162,33.576 78.44,43.193 74.006,40.643 74.006,23.31 	"/>
	<polyline class="st0" points="95.162,11.799 78.44,21.416 78.44,37.379 90.617,30.375 	"/>
	<line class="st0" x1="83.441" y1="24.745" x2="95.618" y2="17.742"/>
	<line class="st0" x1="82.637" y1="30.381" x2="90.703" y2="25.742"/>
	<polyline class="st0" points="48.712,78.558 31.991,88.176 31.991,109.365 	"/>
	<line class="st0" x1="27.447" y1="85.562" x2="44.169" y2="75.943"/>
	<line class="st0" x1="31.991" y1="88.176" x2="48.712" y2="78.558"/>
	<line class="st0" x1="36.536" y1="90.789" x2="53.256" y2="81.172"/>
	<polyline class="st0" points="27.557,89.838 27.557,107.402 27.406,107.402 22.97,104.851 22.903,104.851 22.903,82.948 
		39.623,73.33 57.801,83.785 57.801,99.747 57.801,105.562 41.079,115.179 36.644,112.629 36.644,95.296 	"/>
	<polyline class="st0" points="57.801,83.785 41.079,93.403 41.079,109.365 53.256,102.361 	"/>
	<line class="st0" x1="46.08" y1="96.731" x2="58.256" y2="89.728"/>
	<line class="st0" x1="45.276" y1="102.367" x2="53.342" y2="97.728"/>
	<polyline class="st0" points="89.238,78.558 72.516,88.176 72.516,109.365 	"/>
	<line class="st0" x1="67.973" y1="85.562" x2="84.694" y2="75.943"/>
	<line class="st0" x1="72.516" y1="88.176" x2="89.238" y2="78.558"/>
	<line class="st0" x1="77.061" y1="90.789" x2="93.781" y2="81.172"/>
	<polyline class="st0" points="68.082,89.838 68.082,107.402 67.931,107.402 63.496,104.851 63.428,104.851 63.428,82.948 
		80.148,73.33 98.326,83.785 98.326,99.747 98.326,105.562 81.604,115.179 77.169,112.629 77.169,95.296 	"/>
	<polyline class="st0" points="98.326,83.785 81.604,93.403 81.604,109.365 93.781,102.361 	"/>
	<line class="st0" x1="86.605" y1="96.731" x2="98.782" y2="89.728"/>
	<line class="st0" x1="85.801" y1="102.367" x2="93.867" y2="97.728"/>
</g>
<g id="vertical-redundant_x60_125x82">
	<polyline class="st1" points="13.453,27.71 2.366,18.158 2.366,24.063 13.453,33.613 31.505,33.486 	"/>
	<polyline class="st1" points="35.628,34.266 46.715,24.716 46.715,30.302 35.628,39.2 13.453,39.2 0.825,28.108 	"/>
	<polyline class="st1" points="46.715,36.008 35.628,44.906 14.99,44.906 	"/>
	<polyline class="st1" points="12.912,44.937 1.825,35.387 1.825,41.237 12.912,50.748 35.088,50.748 46.861,41.154 	"/>
	<polyline class="st1" points="21.374,10.799 30.082,10.799 38.665,18.33 46.715,10.8 35.628,1.25 13.411,1.25 2.366,10.8 
		16.119,23.017 31.613,23.017 34.85,20.707 	"/>
	<polyline class="st1" points="11.724,9.606 20.945,17.418 30.325,17.418 	"/>
	<polyline class="st1" points="15.142,6.107 33.435,6.107 39.012,11.456 	"/>
	<polyline class="st1" points="93.374,27.71 111.665,27.71 122.752,18.158 122.752,15.525 	"/>
	<polyline class="st1" points="89.49,27.71 78.403,18.158 78.403,24.063 89.49,33.613 107.542,33.486 	"/>
	<polyline class="st1" points="111.665,34.266 122.752,24.716 122.752,30.302 111.665,39.2 89.49,39.2 76.862,28.108 	"/>
	<polyline class="st1" points="122.752,36.008 111.665,44.906 91.026,44.906 	"/>
	<polyline class="st1" points="88.949,44.937 77.862,35.387 77.862,41.237 88.949,50.748 111.124,50.748 122.898,41.154 	"/>
	<polyline class="st1" points="97.411,10.799 106.119,10.799 114.702,18.33 122.752,10.8 111.665,1.25 89.448,1.25 78.403,10.8 
		92.155,23.017 107.649,23.017 110.886,20.707 	"/>
	<polyline class="st1" points="87.761,9.606 96.982,17.418 106.361,17.418 	"/>
	<polyline class="st1" points="91.179,6.107 109.471,6.107 115.049,11.456 	"/>
	<polyline class="st2" points="57.263,76.907 57.263,66.4 62.844,63.083 68.425,66.4 68.425,76.907 62.844,73.59 62.844,69.19 	"/>
	<line class="st2" x1="57.263" y1="76.907" x2="62.844" y2="73.59"/>
	<path class="st3" d="M62.844,73.59"/>
	<polyline class="st3" points="62.844,57.596 62.844,60.374 62.844,63.288 	"/>
	<polyline class="st2" points="73.203,63.638 62.844,69.835 52.485,63.638 	"/>
	<polygon class="st2" points="73.203,74.055 62.844,80.252 52.485,74.055 52.485,63.638 62.844,57.44 73.203,63.638 	"/>
	<polyline class="st1" points="17.337,27.71 35.628,27.71 46.715,18.158 	"/>
	<line class="st1" x1="78.146" y1="40.457" x2="54.423" y2="40.457"/>
	<polyline class="st1" points="59.004,45.757 53.703,40.457 59.004,35.156 	"/>
	<line class="st1" x1="46.715" y1="10.552" x2="69.624" y2="10.374"/>
	<polyline class="st1" points="65.043,5.073 70.344,10.374 65.043,15.674 	"/>
</g>
<g id="vertical-single_x60_49x52">
	<polyline class="st1" points="17.337,27.71 35.629,27.71 46.716,18.158 46.716,15.525 	"/>
	<polyline class="st1" points="13.453,27.71 2.366,18.158 2.366,24.063 13.453,33.613 31.505,33.486 	"/>
	<polyline class="st1" points="35.629,34.266 46.716,24.716 46.716,30.302 35.629,39.2 13.453,39.2 0.825,28.108 	"/>
	<polyline class="st1" points="46.716,36.008 35.629,44.906 14.99,44.906 	"/>
	<polyline class="st1" points="12.912,44.937 1.825,35.387 1.825,41.237 12.912,50.748 35.088,50.748 46.862,41.154 	"/>
	<polyline class="st1" points="21.374,10.799 30.083,10.799 38.665,18.33 46.716,10.8 35.629,1.25 13.411,1.25 2.366,10.8 
		16.119,23.017 31.613,23.017 34.85,20.707 	"/>
	<polyline class="st1" points="11.724,9.606 20.945,17.418 30.325,17.418 	"/>
	<polyline class="st1" points="15.142,6.107 33.435,6.107 39.013,11.456 	"/>
</g>
<g id="check_x60_27x27">
	<circle class="st4" cx="13.467" cy="13.467" r="13.467"/>
	<path id="_x3E_check-mark" class="st5" d="M11.878,19.169c-0.234,0-0.448-0.045-0.641-0.137c-0.193-0.092-0.377-0.214-0.55-0.366
		l-3.236-3.252c-0.163-0.163-0.285-0.349-0.366-0.558c-0.082-0.208-0.122-0.419-0.122-0.633s0.041-0.423,0.122-0.626
		c0.082-0.204,0.204-0.382,0.366-0.534C7.614,12.9,7.8,12.775,8.008,12.689c0.208-0.087,0.42-0.13,0.634-0.13
		s0.422,0.043,0.626,0.13c0.203,0.086,0.387,0.211,0.549,0.374l2.061,2.061l5.206-5.221c0.163-0.163,0.346-0.285,0.549-0.366
		c0.204-0.082,0.415-0.122,0.634-0.122c0.219,0,0.43,0.04,0.633,0.122c0.204,0.081,0.387,0.203,0.55,0.366s0.282,0.346,0.359,0.55
		c0.076,0.203,0.114,0.414,0.114,0.633c0,0.22-0.038,0.431-0.114,0.634c-0.077,0.204-0.196,0.387-0.359,0.55l-6.397,6.396
		c-0.152,0.152-0.328,0.274-0.526,0.366C12.328,19.124,12.112,19.169,11.878,19.169z"/>
</g>
<g id="next-btn_x60_83x40">
	<polygon class="st6" points="70.474,0.016 0,0 0,39.644 70.474,39.644 82.664,19.822 	"/>
</g>
<g id="cancel-x_x60_12x12">
	<line class="st7" x1="0.354" y1="0.354" x2="10.977" y2="10.977"/>
	<line class="st7" x1="10.977" y1="0.354" x2="0.354" y2="10.977"/>
</g>
<g id="back-arrow_x60_6x12">
	<polyline class="st7" points="5.196,10.998 0.656,5.661 5.196,0.324 	"/>
</g>
<g id="monitor_x60_23x25">
	<polyline class="st2" points="5.778,20.325 5.778,9.818 11.359,6.501 16.94,9.818 16.94,20.325 11.359,17.008 11.359,12.608 	"/>
	<line class="st2" x1="5.778" y1="20.325" x2="11.359" y2="17.008"/>
	<path class="st3" d="M11.359,17.008"/>
	<polyline class="st3" points="11.359,1.014 11.359,3.792 11.359,6.706 	"/>
	<polyline class="st2" points="21.718,7.056 11.359,13.253 1,7.056 	"/>
	<polygon class="st2" points="21.718,17.473 11.359,23.67 1,17.473 1,7.056 11.359,0.858 21.718,7.056 	"/>
</g>
</svg>
