<?xml version="1.0" encoding="iso-8859-1"?>
<!-- Generator: Adobe Illustrator 19.2.1, SVG Export Plug-In . SVG Version: 6.00 Build 0)  -->
<svg version="1.1" id="Layer_1" xmlns="http://www.w3.org/2000/svg" xmlns:xlink="http://www.w3.org/1999/xlink" x="0px" y="0px"
	 viewBox="0 0 200 200" style="enable-background:new 0 0 200 200;" xml:space="preserve">
<style type="text/css">
	.st0{fill:none;stroke:#717D85;stroke-width:2.3295;stroke-miterlimit:10;}
	.st1{fill:none;stroke:#717D85;stroke-width:2.5;stroke-miterlimit:10;}
	.st2{fill:none;stroke:#717D85;stroke-width:2;stroke-linejoin:bevel;stroke-miterlimit:10;}
	.st3{fill:none;stroke:#717D85;stroke-width:2;stroke-miterlimit:10;}
	.st4{fill:#FFFFFF;}
	.st5{fill:#274D69;}
	.st6{fill:#49617A;}
	.st7{fill:none;stroke:#274D69;stroke-miterlimit:10;}
</style>
<g id="horizontal-single_x60_44x53">
	<polyline class="st0" points="31.756,7.54 11.936,18.94 11.936,44.055 	"/>
	<line class="st0" x1="6.551" y1="15.841" x2="26.371" y2="4.441"/>
	<line class="st0" x1="11.936" y1="18.94" x2="31.756" y2="7.54"/>
	<line class="st0" x1="17.323" y1="22.037" x2="37.141" y2="10.638"/>
	<polyline class="st0" points="6.681,20.91 6.681,41.728 6.502,41.728 1.244,38.705 1.165,38.705 1.165,12.743 20.983,1.344 
		42.528,13.736 42.528,32.655 42.528,39.547 22.708,50.947 17.452,47.924 17.452,27.38 	"/>
	<polyline class="st0" points="42.528,13.736 22.708,25.135 22.708,44.055 37.141,35.754 	"/>
	<line class="st0" x1="28.636" y1="29.081" x2="43.068" y2="20.78"/>
	<line class="st0" x1="27.683" y1="35.761" x2="37.243" y2="30.262"/>
</g>
<g id="horizontal-cluster_x60_119x117">
	<polyline class="st0" points="26.974,42.893 10.252,52.511 10.252,73.7 	"/>
	<line class="st0" x1="5.709" y1="49.897" x2="22.431" y2="40.278"/>
	<line class="st0" x1="10.252" y1="52.511" x2="26.974" y2="42.893"/>
	<line class="st0" x1="14.797" y1="55.124" x2="31.517" y2="45.507"/>
	<polyline class="st0" points="5.818,54.173 5.818,71.737 5.668,71.737 1.232,69.186 1.165,69.186 1.165,47.283 17.885,37.665 
		36.062,48.12 36.062,64.082 36.062,69.897 19.34,79.514 14.906,76.964 14.906,59.631 	"/>
	<polyline class="st0" points="36.062,48.12 19.34,57.737 19.34,73.7 31.517,66.696 	"/>
	<line class="st0" x1="24.341" y1="61.066" x2="36.518" y2="54.063"/>
	<line class="st0" x1="23.537" y1="66.702" x2="31.603" y2="62.063"/>
	<polyline class="st0" points="67.499,42.893 50.777,52.511 50.777,73.7 	"/>
	<line class="st0" x1="46.234" y1="49.897" x2="62.956" y2="40.278"/>
	<line class="st0" x1="50.777" y1="52.511" x2="67.499" y2="42.893"/>
	<line class="st0" x1="55.322" y1="55.124" x2="72.042" y2="45.507"/>
	<polyline class="st0" points="46.344,54.173 46.344,71.737 46.193,71.737 41.757,69.186 41.69,69.186 41.69,47.283 58.41,37.665 
		76.587,48.12 76.587,64.082 76.587,69.897 59.866,79.514 55.431,76.964 55.431,59.631 	"/>
	<polyline class="st0" points="76.587,48.12 59.866,57.737 59.866,73.7 72.042,66.696 	"/>
	<line class="st0" x1="64.866" y1="61.066" x2="77.043" y2="54.063"/>
	<line class="st0" x1="64.063" y1="66.702" x2="72.129" y2="62.063"/>
	<polyline class="st0" points="108.024,42.893 91.303,52.511 91.303,73.7 	"/>
	<line class="st0" x1="86.759" y1="49.897" x2="103.481" y2="40.278"/>
	<line class="st0" x1="91.303" y1="52.511" x2="108.024" y2="42.893"/>
	<line class="st0" x1="95.848" y1="55.124" x2="112.568" y2="45.507"/>
	<polyline class="st0" points="86.869,54.173 86.869,71.737 86.718,71.737 82.282,69.186 82.215,69.186 82.215,47.283 
		98.935,37.665 117.113,48.12 117.113,64.082 117.113,69.897 100.391,79.514 95.956,76.964 95.956,59.631 	"/>
	<polyline class="st0" points="117.113,48.12 100.391,57.737 100.391,73.7 112.568,66.696 	"/>
	<line class="st0" x1="105.392" y1="61.066" x2="117.568" y2="54.063"/>
	<line class="st0" x1="104.588" y1="66.702" x2="112.654" y2="62.063"/>
	<polyline class="st0" points="45.548,6.572 28.826,16.189 28.826,37.378 	"/>
	<line class="st0" x1="24.283" y1="13.575" x2="41.005" y2="3.957"/>
	<line class="st0" x1="28.826" y1="16.189" x2="45.548" y2="6.572"/>
	<line class="st0" x1="33.371" y1="18.802" x2="50.091" y2="9.185"/>
	<polyline class="st0" points="24.392,17.851 24.392,35.415 24.242,35.415 19.806,32.865 19.739,32.865 19.739,10.961 36.459,1.344 
		54.636,11.798 54.636,27.761 54.636,33.575 37.914,43.193 33.48,40.642 33.48,23.31 	"/>
	<polyline class="st0" points="54.636,11.798 37.914,21.416 37.914,37.378 50.091,30.375 	"/>
	<line class="st0" x1="42.915" y1="24.745" x2="55.092" y2="17.741"/>
	<line class="st0" x1="42.111" y1="30.381" x2="50.177" y2="25.741"/>
	<polyline class="st0" points="86.073,6.572 69.351,16.189 69.351,37.378 	"/>
	<line class="st0" x1="64.808" y1="13.575" x2="81.53" y2="3.957"/>
	<line class="st0" x1="69.351" y1="16.189" x2="86.073" y2="6.572"/>
	<line class="st0" x1="73.897" y1="18.802" x2="90.616" y2="9.185"/>
	<polyline class="st0" points="64.918,17.851 64.918,35.415 64.767,35.415 60.331,32.865 60.264,32.865 60.264,10.961 76.984,1.344 
		95.161,11.798 95.161,27.761 95.161,33.575 78.44,43.193 74.005,40.642 74.005,23.31 	"/>
	<polyline class="st0" points="95.161,11.798 78.44,21.416 78.44,37.378 90.616,30.375 	"/>
	<line class="st0" x1="83.441" y1="24.745" x2="95.617" y2="17.741"/>
	<line class="st0" x1="82.637" y1="30.381" x2="90.703" y2="25.741"/>
	<polyline class="st0" points="48.712,78.558 31.99,88.175 31.99,109.364 	"/>
	<line class="st0" x1="27.447" y1="85.561" x2="44.169" y2="75.943"/>
	<line class="st0" x1="31.99" y1="88.175" x2="48.712" y2="78.558"/>
	<line class="st0" x1="36.535" y1="90.788" x2="53.255" y2="81.172"/>
	<polyline class="st0" points="27.556,89.838 27.556,107.402 27.405,107.402 22.97,104.851 22.903,104.851 22.903,82.947 
		39.622,73.33 57.8,83.785 57.8,99.747 57.8,105.562 41.078,115.179 36.644,112.628 36.644,95.296 	"/>
	<polyline class="st0" points="57.8,83.785 41.078,93.402 41.078,109.364 53.255,102.361 	"/>
	<line class="st0" x1="46.079" y1="96.731" x2="58.256" y2="89.727"/>
	<line class="st0" x1="45.275" y1="102.367" x2="53.341" y2="97.728"/>
	<polyline class="st0" points="89.237,78.558 72.515,88.175 72.515,109.364 	"/>
	<line class="st0" x1="67.972" y1="85.561" x2="84.694" y2="75.943"/>
	<line class="st0" x1="72.515" y1="88.175" x2="89.237" y2="78.558"/>
	<line class="st0" x1="77.06" y1="90.788" x2="93.78" y2="81.172"/>
	<polyline class="st0" points="68.081,89.838 68.081,107.402 67.931,107.402 63.495,104.851 63.428,104.851 63.428,82.947 
		80.148,73.33 98.325,83.785 98.325,99.747 98.325,105.562 81.603,115.179 77.169,112.628 77.169,95.296 	"/>
	<polyline class="st0" points="98.325,83.785 81.603,93.402 81.603,109.364 93.78,102.361 	"/>
	<line class="st0" x1="86.604" y1="96.731" x2="98.781" y2="89.727"/>
	<line class="st0" x1="85.8" y1="102.367" x2="93.866" y2="97.728"/>
</g>
<g id="vertical-redundant_x60_125x82">
	<polyline class="st1" points="13.453,27.709 2.366,18.157 2.366,24.063 13.453,33.613 31.505,33.486 	"/>
	<polyline class="st1" points="35.628,34.266 46.715,24.716 46.715,30.301 35.628,39.2 13.453,39.2 0.825,28.107 	"/>
	<polyline class="st1" points="46.715,36.007 35.628,44.906 14.99,44.906 	"/>
	<polyline class="st1" points="12.912,44.937 1.825,35.387 1.825,41.237 12.912,50.748 35.087,50.748 46.861,41.153 	"/>
	<polyline class="st1" points="21.374,10.799 30.082,10.799 38.665,18.329 46.715,10.799 35.628,1.25 13.411,1.25 2.366,10.799 
		16.118,23.017 31.612,23.017 34.85,20.706 	"/>
	<polyline class="st1" points="11.724,9.606 20.945,17.418 30.324,17.418 	"/>
	<polyline class="st1" points="15.142,6.106 33.435,6.106 39.012,11.456 	"/>
	<polyline class="st1" points="93.374,27.709 111.665,27.709 122.752,18.157 122.752,15.525 	"/>
	<polyline class="st1" points="89.489,27.709 78.403,18.157 78.403,24.063 89.489,33.613 107.542,33.486 	"/>
	<polyline class="st1" points="111.665,34.266 122.752,24.716 122.752,30.301 111.665,39.2 89.489,39.2 76.862,28.107 	"/>
	<polyline class="st1" points="122.752,36.007 111.665,44.906 91.026,44.906 	"/>
	<polyline class="st1" points="88.949,44.937 77.862,35.387 77.862,41.237 88.949,50.748 111.124,50.748 122.898,41.153 	"/>
	<polyline class="st1" points="97.41,10.799 106.119,10.799 114.702,18.329 122.752,10.799 111.665,1.25 89.447,1.25 78.403,10.799 
		92.155,23.017 107.649,23.017 110.886,20.706 	"/>
	<polyline class="st1" points="87.761,9.606 96.982,17.418 106.361,17.418 	"/>
	<polyline class="st1" points="91.179,6.106 109.471,6.106 115.049,11.456 	"/>
	<polyline class="st2" points="57.263,76.907 57.263,66.4 62.844,63.083 68.425,66.4 68.425,76.907 62.844,73.59 62.844,69.19 	"/>
	<line class="st2" x1="57.263" y1="76.907" x2="62.844" y2="73.59"/>
	<path class="st3" d="M62.844,73.59"/>
	<polyline class="st3" points="62.844,57.596 62.844,60.374 62.844,63.287 	"/>
	<polyline class="st2" points="73.203,63.637 62.844,69.834 52.485,63.637 	"/>
	<polygon class="st2" points="73.203,74.054 62.844,80.251 52.485,74.054 52.485,63.637 62.844,57.44 73.203,63.637 	"/>
	<polyline class="st1" points="17.337,27.709 35.628,27.709 46.715,18.157 	"/>
	<line class="st1" x1="78.146" y1="40.457" x2="54.423" y2="40.457"/>
	<polyline class="st1" points="59.004,45.757 53.703,40.457 59.004,35.156 	"/>
	<line class="st1" x1="46.715" y1="10.551" x2="69.624" y2="10.373"/>
	<polyline class="st1" points="65.043,5.073 70.344,10.373 65.043,15.674 	"/>
</g>
<g id="vertical-single_x60_49x52">
	<polyline class="st1" points="17.337,27.709 35.628,27.709 46.715,18.157 46.715,15.525 	"/>
	<polyline class="st1" points="13.453,27.709 2.366,18.157 2.366,24.063 13.453,33.613 31.505,33.486 	"/>
	<polyline class="st1" points="35.628,34.266 46.715,24.716 46.715,30.301 35.628,39.2 13.453,39.2 0.825,28.107 	"/>
	<polyline class="st1" points="46.715,36.007 35.628,44.906 14.99,44.906 	"/>
	<polyline class="st1" points="12.912,44.937 1.825,35.387 1.825,41.237 12.912,50.748 35.087,50.748 46.861,41.153 	"/>
	<polyline class="st1" points="21.374,10.799 30.082,10.799 38.665,18.329 46.715,10.799 35.628,1.25 13.411,1.25 2.366,10.799 
		16.118,23.017 31.612,23.017 34.85,20.706 	"/>
	<polyline class="st1" points="11.724,9.606 20.945,17.418 30.324,17.418 	"/>
	<polyline class="st1" points="15.142,6.106 33.435,6.106 39.012,11.456 	"/>
</g>
<g id="check_x60_27x27">
	<circle class="st4" cx="13.467" cy="13.467" r="13.467"/>
	<path id="_x3E_check-mark" class="st5" d="M11.878,19.169c-0.234,0-0.448-0.045-0.641-0.137c-0.193-0.092-0.377-0.214-0.55-0.366
		l-3.236-3.252c-0.163-0.163-0.285-0.349-0.366-0.558c-0.082-0.208-0.122-0.419-0.122-0.633s0.041-0.423,0.122-0.626
		c0.082-0.204,0.204-0.382,0.366-0.534C7.614,12.9,7.8,12.775,8.008,12.689c0.208-0.087,0.42-0.13,0.634-0.13
		s0.422,0.043,0.626,0.13c0.203,0.086,0.387,0.211,0.549,0.374l2.061,2.061l5.206-5.221c0.163-0.163,0.346-0.285,0.549-0.366
		c0.204-0.082,0.415-0.122,0.634-0.122c0.219,0,0.43,0.04,0.633,0.122c0.204,0.081,0.387,0.203,0.55,0.366
		c0.163,0.163,0.282,0.346,0.359,0.55c0.076,0.203,0.114,0.414,0.114,0.633c0,0.22-0.038,0.431-0.114,0.634
		c-0.077,0.204-0.196,0.387-0.359,0.55l-6.396,6.396c-0.152,0.152-0.328,0.274-0.526,0.366
		C12.329,19.124,12.112,19.169,11.878,19.169z"/>
</g>
<g id="next-btn_x60_83x40">
	<polygon class="st6" points="70.473,0.017 0,0 0,39.645 70.473,39.645 82.664,19.822 	"/>
</g>
<g id="cancel-x_x60_12x12">
	<line class="st7" x1="0.354" y1="0.354" x2="10.977" y2="10.977"/>
	<line class="st7" x1="10.977" y1="0.354" x2="0.354" y2="10.977"/>
</g>
<g id="back-arrow_x60_6x12">
	<polyline class="st7" points="5.196,10.998 0.656,5.661 5.196,0.324 	"/>
</g>
</svg>
