<?xml version="1.0" encoding="utf-8"?>
<!-- Generator: Adobe Illustrator 19.2.1, SVG Export Plug-In . SVG Version: 6.00 Build 0)  -->
<svg version="1.1" id="svgs" xmlns="http://www.w3.org/2000/svg" xmlns:xlink="http://www.w3.org/1999/xlink" x="0px" y="0px"
	 viewBox="0 0 600 600" style="enable-background:new 0 0 600 600;" xml:space="preserve">
<style type="text/css">
	.st0{fill:none;stroke:#717D85;stroke-width:2.3295;stroke-miterlimit:10;}
	.st1{fill:none;stroke:#717D85;stroke-width:2.5;stroke-miterlimit:10;}
	.st2{fill:none;stroke:#717D85;stroke-width:2;stroke-linejoin:bevel;stroke-miterlimit:10;}
	.st3{fill:none;stroke:#717D85;stroke-width:2;stroke-miterlimit:10;}
	.st4{fill:#FFFFFF;}
	.st5{fill:#274D69;}
	.st6{fill:#43A7D1;}
	.st7{fill:none;stroke:#274D69;stroke-miterlimit:10;}
</style>
<g id="horizontal-single">
	<polyline class="st0" points="231.8,62.2 212,73.6 212,98.7 	"/>
	<line class="st0" x1="206.6" y1="70.5" x2="226.4" y2="59.1"/>
	<line class="st0" x1="212" y1="73.6" x2="231.8" y2="62.2"/>
	<line class="st0" x1="217.4" y1="76.7" x2="237.2" y2="65.3"/>
	<polyline class="st0" points="206.7,75.6 206.7,96.4 206.6,96.4 201.3,93.4 201.2,93.4 201.2,67.4 221,56 242.6,68.4 242.6,87.3 
		242.6,94.2 222.8,105.6 217.5,102.6 217.5,82 	"/>
	<polyline class="st0" points="242.6,68.4 222.8,79.8 222.8,98.7 237.2,90.4 	"/>
	<line class="st0" x1="228.7" y1="83.7" x2="243.1" y2="75.4"/>
	<line class="st0" x1="227.7" y1="90.4" x2="237.3" y2="84.9"/>
</g>
<g id="horizontal-cluster">
	<polyline class="st0" points="47.1,60.9 30.4,70.5 30.4,91.7 	"/>
	<line class="st0" x1="25.9" y1="67.9" x2="42.6" y2="58.3"/>
	<line class="st0" x1="30.4" y1="70.5" x2="47.1" y2="60.9"/>
	<line class="st0" x1="35" y1="73.1" x2="51.7" y2="63.5"/>
	<polyline class="st0" points="26,72.2 26,89.7 25.8,89.7 21.4,87.2 21.3,87.2 21.3,65.3 38.1,55.7 56.2,66.1 56.2,82.1 56.2,87.9 
		39.5,97.5 35.1,95 35.1,77.6 	"/>
	<polyline class="st0" points="56.2,66.1 39.5,75.7 39.5,91.7 51.7,84.7 	"/>
	<line class="st0" x1="44.5" y1="79.1" x2="56.7" y2="72.1"/>
	<line class="st0" x1="43.7" y1="84.7" x2="51.8" y2="80.1"/>
	<polyline class="st0" points="87.7,60.9 70.9,70.5 70.9,91.7 	"/>
	<line class="st0" x1="66.4" y1="67.9" x2="83.1" y2="58.3"/>
	<line class="st0" x1="70.9" y1="70.5" x2="87.7" y2="60.9"/>
	<line class="st0" x1="75.5" y1="73.1" x2="92.2" y2="63.5"/>
	<polyline class="st0" points="66.5,72.2 66.5,89.7 66.4,89.7 61.9,87.2 61.9,87.2 61.9,65.3 78.6,55.7 96.8,66.1 96.8,82.1 
		96.8,87.9 80,97.5 75.6,95 75.6,77.6 	"/>
	<polyline class="st0" points="96.8,66.1 80,75.7 80,91.7 92.2,84.7 	"/>
	<line class="st0" x1="85" y1="79.1" x2="97.2" y2="72.1"/>
	<line class="st0" x1="84.2" y1="84.7" x2="92.3" y2="80.1"/>
	<polyline class="st0" points="128.2,60.9 111.5,70.5 111.5,91.7 	"/>
	<line class="st0" x1="106.9" y1="67.9" x2="123.6" y2="58.3"/>
	<line class="st0" x1="111.5" y1="70.5" x2="128.2" y2="60.9"/>
	<line class="st0" x1="116" y1="73.1" x2="132.7" y2="63.5"/>
	<polyline class="st0" points="107,72.2 107,89.7 106.9,89.7 102.4,87.2 102.4,87.2 102.4,65.3 119.1,55.7 137.3,66.1 137.3,82.1 
		137.3,87.9 120.6,97.5 116.1,95 116.1,77.6 	"/>
	<polyline class="st0" points="137.3,66.1 120.6,75.7 120.6,91.7 132.7,84.7 	"/>
	<line class="st0" x1="125.6" y1="79.1" x2="137.7" y2="72.1"/>
	<line class="st0" x1="124.8" y1="84.7" x2="132.8" y2="80.1"/>
	<polyline class="st0" points="65.7,24.6 49,34.2 49,55.4 	"/>
	<line class="st0" x1="44.5" y1="31.6" x2="61.2" y2="22"/>
	<line class="st0" x1="49" y1="34.2" x2="65.7" y2="24.6"/>
	<line class="st0" x1="53.5" y1="36.8" x2="70.3" y2="27.2"/>
	<polyline class="st0" points="44.6,35.9 44.6,53.4 44.4,53.4 40,50.9 39.9,50.9 39.9,29 56.6,19.3 74.8,29.8 74.8,45.8 74.8,51.6 
		58.1,61.2 53.6,58.6 53.6,41.3 	"/>
	<polyline class="st0" points="74.8,29.8 58.1,39.4 58.1,55.4 70.3,48.4 	"/>
	<line class="st0" x1="63.1" y1="42.7" x2="75.3" y2="35.7"/>
	<line class="st0" x1="62.3" y1="48.4" x2="70.3" y2="43.7"/>
	<polyline class="st0" points="106.2,24.6 89.5,34.2 89.5,55.4 	"/>
	<line class="st0" x1="85" y1="31.6" x2="101.7" y2="22"/>
	<line class="st0" x1="89.5" y1="34.2" x2="106.2" y2="24.6"/>
	<line class="st0" x1="94.1" y1="36.8" x2="110.8" y2="27.2"/>
	<polyline class="st0" points="85.1,35.9 85.1,53.4 84.9,53.4 80.5,50.9 80.4,50.9 80.4,29 97.2,19.3 115.3,29.8 115.3,45.8 
		115.3,51.6 98.6,61.2 94.2,58.6 94.2,41.3 	"/>
	<polyline class="st0" points="115.3,29.8 98.6,39.4 98.6,55.4 110.8,48.4 	"/>
	<line class="st0" x1="103.6" y1="42.7" x2="115.8" y2="35.7"/>
	<line class="st0" x1="102.8" y1="48.4" x2="110.9" y2="43.7"/>
	<polyline class="st0" points="68.9,96.6 52.2,106.2 52.2,127.4 	"/>
	<line class="st0" x1="47.6" y1="103.6" x2="64.3" y2="93.9"/>
	<line class="st0" x1="52.2" y1="106.2" x2="68.9" y2="96.6"/>
	<line class="st0" x1="56.7" y1="108.8" x2="73.4" y2="99.2"/>
	<polyline class="st0" points="47.7,107.8 47.7,125.4 47.6,125.4 43.1,122.9 43.1,122.9 43.1,101 59.8,91.3 78,101.8 78,117.8 
		78,123.6 61.2,133.2 56.8,130.6 56.8,113.3 	"/>
	<polyline class="st0" points="78,101.8 61.2,111.4 61.2,127.4 73.4,120.4 	"/>
	<line class="st0" x1="66.2" y1="114.7" x2="78.4" y2="107.7"/>
	<line class="st0" x1="65.4" y1="120.4" x2="73.5" y2="115.7"/>
	<polyline class="st0" points="109.4,96.6 92.7,106.2 92.7,127.4 	"/>
	<line class="st0" x1="88.1" y1="103.6" x2="104.9" y2="93.9"/>
	<line class="st0" x1="92.7" y1="106.2" x2="109.4" y2="96.6"/>
	<line class="st0" x1="97.2" y1="108.8" x2="113.9" y2="99.2"/>
	<polyline class="st0" points="88.2,107.8 88.2,125.4 88.1,125.4 83.7,122.9 83.6,122.9 83.6,101 100.3,91.3 118.5,101.8 
		118.5,117.8 118.5,123.6 101.8,133.2 97.3,130.6 97.3,113.3 	"/>
	<polyline class="st0" points="118.5,101.8 101.8,111.4 101.8,127.4 113.9,120.4 	"/>
	<line class="st0" x1="106.8" y1="114.7" x2="118.9" y2="107.7"/>
	<line class="st0" x1="106" y1="120.4" x2="114" y2="115.7"/>
</g>
<g id="vertical-redundant">
	<polyline class="st1" points="322.8,82.5 311.7,72.9 311.7,78.8 322.8,88.4 340.8,88.2 	"/>
	<polyline class="st1" points="345,89 356.1,79.5 356.1,85.1 345,94 322.8,94 310.2,82.9 	"/>
	<polyline class="st1" points="356.1,90.8 345,99.7 324.3,99.7 	"/>
	<polyline class="st1" points="322.2,99.7 311.2,90.1 311.2,96 322.2,105.5 344.4,105.5 356.2,95.9 	"/>
	<polyline class="st1" points="330.7,65.6 339.4,65.6 348,73.1 356.1,65.6 345,56 322.7,56 311.7,65.6 325.5,77.8 341,77.8 
		344.2,75.5 	"/>
	<polyline class="st1" points="321.1,64.4 330.3,72.2 339.7,72.2 	"/>
	<polyline class="st1" points="324.5,60.9 342.8,60.9 348.4,66.2 	"/>
	<polyline class="st1" points="402.7,82.5 421,82.5 432.1,72.9 432.1,70.3 	"/>
	<polyline class="st1" points="398.8,82.5 387.7,72.9 387.7,78.8 398.8,88.4 416.9,88.2 	"/>
	<polyline class="st1" points="421,89 432.1,79.5 432.1,85.1 421,94 398.8,94 386.2,82.9 	"/>
	<polyline class="st1" points="432.1,90.8 421,99.7 400.4,99.7 	"/>
	<polyline class="st1" points="398.3,99.7 387.2,90.1 387.2,96 398.3,105.5 420.5,105.5 432.2,95.9 	"/>
	<polyline class="st1" points="406.7,65.6 415.5,65.6 424,73.1 432.1,65.6 421,56 398.8,56 387.7,65.6 401.5,77.8 417,77.8 
		420.2,75.5 	"/>
	<polyline class="st1" points="397.1,64.4 406.3,72.2 415.7,72.2 	"/>
	<polyline class="st1" points="400.5,60.9 418.8,60.9 424.4,66.2 	"/>
	<polyline class="st2" points="366.6,131.7 366.6,121.2 372.2,117.8 377.8,121.2 377.8,131.7 372.2,128.4 372.2,124 	"/>
	<line class="st2" x1="366.6" y1="131.7" x2="372.2" y2="128.4"/>
	<path class="st3" d="M372.2,128.4"/>
	<polyline class="st3" points="372.2,112.4 372.2,115.1 372.2,118.1 	"/>
	<polyline class="st2" points="382.5,118.4 372.2,124.6 361.8,118.4 	"/>
	<polygon class="st2" points="382.5,128.8 372.2,135 361.8,128.8 361.8,118.4 372.2,112.2 382.5,118.4 	"/>
	<polyline class="st1" points="326.7,82.5 345,82.5 356.1,72.9 	"/>
	<line class="st1" x1="387.5" y1="95.2" x2="363.8" y2="95.2"/>
	<polyline class="st1" points="368.3,100.5 363,95.2 368.3,89.9 	"/>
	<line class="st1" x1="356.1" y1="65.3" x2="379" y2="65.1"/>
	<polyline class="st1" points="374.4,59.8 379.7,65.1 374.4,70.4 	"/>
</g>
<g id="vertical-single">
	<polyline class="st1" points="522.7,82.5 541,82.5 552.1,72.9 552.1,70.3 	"/>
	<polyline class="st1" points="518.8,82.5 507.7,72.9 507.7,78.8 518.8,88.4 536.8,88.2 	"/>
	<polyline class="st1" points="541,89 552.1,79.5 552.1,85.1 541,94 518.8,94 506.2,82.9 	"/>
	<polyline class="st1" points="552.1,90.8 541,99.7 520.3,99.7 	"/>
	<polyline class="st1" points="518.2,99.7 507.2,90.1 507.2,96 518.2,105.5 540.4,105.5 552.2,95.9 	"/>
	<polyline class="st1" points="526.7,65.6 535.4,65.6 544,73.1 552.1,65.6 541,56 518.7,56 507.7,65.6 521.5,77.8 536.9,77.8 
		540.2,75.5 	"/>
	<polyline class="st1" points="517.1,64.4 526.3,72.2 535.7,72.2 	"/>
	<polyline class="st1" points="520.5,60.9 538.8,60.9 544.3,66.2 	"/>
</g>
<g id="check">
	<circle class="st4" cx="34.7" cy="211.8" r="13.5"/>
	<path id="_x3E_check-mark" class="st5" d="M33.1,217.5c-0.2,0-0.4,0-0.6-0.1c-0.2-0.1-0.4-0.2-0.5-0.4l-3.2-3.3
		c-0.2-0.2-0.3-0.3-0.4-0.6c-0.1-0.2-0.1-0.4-0.1-0.6s0-0.4,0.1-0.6c0.1-0.2,0.2-0.4,0.4-0.5c0.2-0.2,0.3-0.3,0.6-0.4
		c0.2-0.1,0.4-0.1,0.6-0.1s0.4,0,0.6,0.1s0.4,0.2,0.5,0.4l2.1,2.1l5.2-5.2c0.2-0.2,0.3-0.3,0.5-0.4c0.2-0.1,0.4-0.1,0.6-0.1
		c0.2,0,0.4,0,0.6,0.1c0.2,0.1,0.4,0.2,0.5,0.4s0.3,0.3,0.4,0.6c0.1,0.2,0.1,0.4,0.1,0.6c0,0.2,0,0.4-0.1,0.6
		c-0.1,0.2-0.2,0.4-0.4,0.6l-6.4,6.4c-0.2,0.2-0.3,0.3-0.5,0.4C33.5,217.5,33.3,217.5,33.1,217.5z"/>
</g>
<g id="next-btn">
	<polygon class="st6" points="225.1,199.5 156.1,199.5 156.1,235.5 225.1,235.5 236.3,217.5 	"/>
</g>
<g id="cancel-x">
	<line class="st7" x1="79.7" y1="212.2" x2="90.3" y2="222.8"/>
	<line class="st7" x1="90.3" y1="212.2" x2="79.7" y2="222.8"/>
</g>
<g id="back-arrow">
	<polyline class="st7" points="115.1,223 110.6,217.6 115.1,212.3 	"/>
</g>
<g id="monitor">
	<polyline class="st2" points="284.1,225.6 284.1,215.1 289.6,211.7 295.2,215.1 295.2,225.6 289.6,222.2 289.6,217.8 	"/>
	<line class="st2" x1="284.1" y1="225.6" x2="289.6" y2="222.2"/>
	<path class="st3" d="M289.6,222.2"/>
	<polyline class="st3" points="289.6,206.3 289.6,209 289.6,211.9 	"/>
	<polyline class="st2" points="300,212.3 289.6,218.5 279.3,212.3 	"/>
	<polygon class="st2" points="300,222.7 289.6,228.9 279.3,222.7 279.3,212.3 289.6,206.1 300,212.3 	"/>
</g>
</svg>
