<?xml version="1.0" encoding="iso-8859-1"?>
<!-- Generator: Adobe Illustrator 19.2.1, SVG Export Plug-In . SVG Version: 6.00 Build 0)  -->
<svg version="1.1" id="svgs" xmlns="http://www.w3.org/2000/svg" xmlns:xlink="http://www.w3.org/1999/xlink" x="0px" y="0px"
	 viewBox="0 0 600 600" style="enable-background:new 0 0 600 600;" xml:space="preserve">
<style type="text/css">
	.st0{fill:none;stroke:#717D85;stroke-width:2.3295;stroke-miterlimit:10;}
	.st1{fill:none;stroke:#717D85;stroke-width:2.5;stroke-miterlimit:10;}
	.st2{fill:none;stroke:#717D85;stroke-width:2;stroke-linejoin:bevel;stroke-miterlimit:10;}
	.st3{fill:none;stroke:#717D85;stroke-width:2;stroke-miterlimit:10;}
	.st4{fill:#FFFFFF;}
	.st5{fill:#274D69;}
	.st6{fill:#49617A;}
	.st7{fill:none;stroke:#274D69;stroke-miterlimit:10;}
</style>
<g id="horizontal-single">
	<polyline class="st0" points="231.822,62.209 212.002,73.608 212.002,98.724 	"/>
	<line class="st0" x1="206.617" y1="70.51" x2="226.437" y2="59.109"/>
	<line class="st0" x1="212.002" y1="73.608" x2="231.822" y2="62.209"/>
	<line class="st0" x1="217.389" y1="76.705" x2="237.207" y2="65.307"/>
	<polyline class="st0" points="206.747,75.579 206.747,96.397 206.568,96.397 201.31,93.374 201.231,93.374 201.231,67.412 
		221.049,56.012 242.594,68.404 242.594,87.324 242.594,94.216 222.774,105.616 217.518,102.592 217.518,82.048 	"/>
	<polyline class="st0" points="242.594,68.404 222.774,79.804 222.774,98.724 237.207,90.422 	"/>
	<line class="st0" x1="228.702" y1="83.749" x2="243.135" y2="75.448"/>
	<line class="st0" x1="227.749" y1="90.43" x2="237.309" y2="84.931"/>
</g>
<g id="horizontal-cluster">
	<polyline class="st0" points="47.14,60.898 30.419,70.515 30.419,91.704 	"/>
	<line class="st0" x1="25.876" y1="67.901" x2="42.597" y2="58.283"/>
	<line class="st0" x1="30.419" y1="70.515" x2="47.14" y2="60.898"/>
	<line class="st0" x1="34.964" y1="73.128" x2="51.684" y2="63.512"/>
	<polyline class="st0" points="25.985,72.177 25.985,89.741 25.834,89.741 21.399,87.191 21.331,87.191 21.331,65.287 38.051,55.67 
		56.229,66.124 56.229,82.087 56.229,87.901 39.507,97.519 35.072,94.968 35.072,77.636 	"/>
	<polyline class="st0" points="56.229,66.124 39.507,75.742 39.507,91.704 51.684,84.701 	"/>
	<line class="st0" x1="44.508" y1="79.071" x2="56.685" y2="72.067"/>
	<line class="st0" x1="43.704" y1="84.707" x2="51.77" y2="80.067"/>
	<polyline class="st0" points="87.666,60.898 70.944,70.515 70.944,91.704 	"/>
	<line class="st0" x1="66.401" y1="67.901" x2="83.123" y2="58.283"/>
	<line class="st0" x1="70.944" y1="70.515" x2="87.666" y2="60.898"/>
	<line class="st0" x1="75.489" y1="73.128" x2="92.209" y2="63.512"/>
	<polyline class="st0" points="66.51,72.177 66.51,89.741 66.359,89.741 61.924,87.191 61.857,87.191 61.857,65.287 78.576,55.67 
		96.754,66.124 96.754,82.087 96.754,87.901 80.032,97.519 75.598,94.968 75.598,77.636 	"/>
	<polyline class="st0" points="96.754,66.124 80.032,75.742 80.032,91.704 92.209,84.701 	"/>
	<line class="st0" x1="85.033" y1="79.071" x2="97.21" y2="72.067"/>
	<line class="st0" x1="84.229" y1="84.707" x2="92.295" y2="80.067"/>
	<polyline class="st0" points="128.191,60.898 111.469,70.515 111.469,91.704 	"/>
	<line class="st0" x1="106.926" y1="67.901" x2="123.648" y2="58.283"/>
	<line class="st0" x1="111.469" y1="70.515" x2="128.191" y2="60.898"/>
	<line class="st0" x1="116.014" y1="73.128" x2="132.734" y2="63.512"/>
	<polyline class="st0" points="107.035,72.177 107.035,89.741 106.885,89.741 102.449,87.191 102.382,87.191 102.382,65.287 
		119.102,55.67 137.279,66.124 137.279,82.087 137.279,87.901 120.557,97.519 116.123,94.968 116.123,77.636 	"/>
	<polyline class="st0" points="137.279,66.124 120.557,75.742 120.557,91.704 132.734,84.701 	"/>
	<line class="st0" x1="125.558" y1="79.071" x2="137.735" y2="72.067"/>
	<line class="st0" x1="124.754" y1="84.707" x2="132.82" y2="80.067"/>
	<polyline class="st0" points="65.715,24.576 48.993,34.193 48.993,55.383 	"/>
	<line class="st0" x1="44.45" y1="31.58" x2="61.171" y2="21.961"/>
	<line class="st0" x1="48.993" y1="34.193" x2="65.715" y2="24.576"/>
	<line class="st0" x1="53.538" y1="36.806" x2="70.258" y2="27.19"/>
	<polyline class="st0" points="44.559,35.856 44.559,53.42 44.408,53.42 39.973,50.869 39.905,50.869 39.905,28.966 56.625,19.348 
		74.803,29.803 74.803,45.765 74.803,51.58 58.081,61.197 53.646,58.647 53.646,41.314 	"/>
	<polyline class="st0" points="74.803,29.803 58.081,39.42 58.081,55.383 70.258,48.379 	"/>
	<line class="st0" x1="63.082" y1="42.749" x2="75.259" y2="35.746"/>
	<line class="st0" x1="62.278" y1="48.385" x2="70.344" y2="43.746"/>
	<polyline class="st0" points="106.24,24.576 89.518,34.193 89.518,55.383 	"/>
	<line class="st0" x1="84.975" y1="31.58" x2="101.697" y2="21.961"/>
	<line class="st0" x1="89.518" y1="34.193" x2="106.24" y2="24.576"/>
	<line class="st0" x1="94.063" y1="36.806" x2="110.783" y2="27.19"/>
	<polyline class="st0" points="85.084,35.856 85.084,53.42 84.934,53.42 80.498,50.869 80.431,50.869 80.431,28.966 97.15,19.348 
		115.328,29.803 115.328,45.765 115.328,51.58 98.606,61.197 94.172,58.647 94.172,41.314 	"/>
	<polyline class="st0" points="115.328,29.803 98.606,39.42 98.606,55.383 110.783,48.379 	"/>
	<line class="st0" x1="103.607" y1="42.749" x2="115.784" y2="35.746"/>
	<line class="st0" x1="102.803" y1="48.385" x2="110.869" y2="43.746"/>
	<polyline class="st0" points="68.878,96.562 52.157,106.18 52.157,127.369 	"/>
	<line class="st0" x1="47.613" y1="103.566" x2="64.335" y2="93.947"/>
	<line class="st0" x1="52.157" y1="106.18" x2="68.878" y2="96.562"/>
	<line class="st0" x1="56.702" y1="108.793" x2="73.422" y2="99.176"/>
	<polyline class="st0" points="47.723,107.842 47.723,125.406 47.572,125.406 43.136,122.855 43.069,122.855 43.069,100.952 
		59.789,91.334 77.967,101.789 77.967,117.751 77.967,123.566 61.245,133.183 56.81,130.633 56.81,113.3 	"/>
	<polyline class="st0" points="77.967,101.789 61.245,111.407 61.245,127.369 73.422,120.365 	"/>
	<line class="st0" x1="66.246" y1="114.735" x2="78.422" y2="107.732"/>
	<line class="st0" x1="65.442" y1="120.371" x2="73.508" y2="115.732"/>
	<polyline class="st0" points="109.404,96.562 92.682,106.18 92.682,127.369 	"/>
	<line class="st0" x1="88.139" y1="103.566" x2="104.86" y2="93.947"/>
	<line class="st0" x1="92.682" y1="106.18" x2="109.404" y2="96.562"/>
	<line class="st0" x1="97.227" y1="108.793" x2="113.947" y2="99.176"/>
	<polyline class="st0" points="88.248,107.842 88.248,125.406 88.097,125.406 83.662,122.855 83.594,122.855 83.594,100.952 
		100.314,91.334 118.492,101.789 118.492,117.751 118.492,123.566 101.77,133.183 97.335,130.633 97.335,113.3 	"/>
	<polyline class="st0" points="118.492,101.789 101.77,111.407 101.77,127.369 113.947,120.365 	"/>
	<line class="st0" x1="106.771" y1="114.735" x2="118.948" y2="107.732"/>
	<line class="st0" x1="105.967" y1="120.371" x2="114.033" y2="115.732"/>
</g>
<g id="vertical-redundant">
	<polyline class="st1" points="322.791,82.472 311.704,72.92 311.704,78.825 322.791,88.375 340.843,88.248 	"/>
	<polyline class="st1" points="344.966,89.028 356.053,79.478 356.053,85.064 344.966,93.962 322.791,93.962 310.163,82.87 	"/>
	<polyline class="st1" points="356.053,90.77 344.966,99.668 324.328,99.668 	"/>
	<polyline class="st1" points="322.25,99.699 311.163,90.149 311.163,95.999 322.25,105.51 344.426,105.51 356.199,95.916 	"/>
	<polyline class="st1" points="330.712,65.561 339.42,65.561 348.003,73.092 356.053,65.562 344.966,56.012 322.749,56.012 
		311.704,65.562 325.457,77.779 340.951,77.779 344.188,75.469 	"/>
	<polyline class="st1" points="321.062,64.368 330.283,72.18 339.663,72.18 	"/>
	<polyline class="st1" points="324.48,60.869 342.773,60.869 348.35,66.218 	"/>
	<polyline class="st1" points="402.712,82.472 421.003,82.472 432.09,72.92 432.09,70.287 	"/>
	<polyline class="st1" points="398.828,82.472 387.741,72.92 387.741,78.825 398.828,88.375 416.88,88.248 	"/>
	<polyline class="st1" points="421.003,89.028 432.09,79.478 432.09,85.064 421.003,93.962 398.828,93.962 386.2,82.87 	"/>
	<polyline class="st1" points="432.09,90.77 421.003,99.668 400.364,99.668 	"/>
	<polyline class="st1" points="398.287,99.699 387.2,90.149 387.2,95.999 398.287,105.51 420.462,105.51 432.236,95.916 	"/>
	<polyline class="st1" points="406.749,65.561 415.457,65.561 424.04,73.092 432.09,65.562 421.003,56.012 398.786,56.012 
		387.741,65.562 401.493,77.779 416.987,77.779 420.224,75.469 	"/>
	<polyline class="st1" points="397.099,64.368 406.32,72.18 415.699,72.18 	"/>
	<polyline class="st1" points="400.517,60.869 418.809,60.869 424.387,66.218 	"/>
	<polyline class="st2" points="366.601,131.669 366.601,121.162 372.182,117.845 377.763,121.162 377.763,131.669 372.182,128.352 
		372.182,123.952 	"/>
	<line class="st2" x1="366.601" y1="131.669" x2="372.182" y2="128.352"/>
	<path class="st3" d="M372.182,128.352"/>
	<polyline class="st3" points="372.182,112.358 372.182,115.136 372.182,118.05 	"/>
	<polyline class="st2" points="382.541,118.4 372.182,124.597 361.823,118.4 	"/>
	<polygon class="st2" points="382.541,128.817 372.182,135.014 361.823,128.817 361.823,118.4 372.182,112.202 382.541,118.4 	"/>
	<polyline class="st1" points="326.675,82.472 344.966,82.472 356.053,72.92 	"/>
	<line class="st1" x1="387.484" y1="95.219" x2="363.761" y2="95.219"/>
	<polyline class="st1" points="368.342,100.519 363.041,95.219 368.342,89.918 	"/>
	<line class="st1" x1="356.053" y1="65.314" x2="378.962" y2="65.136"/>
	<polyline class="st1" points="374.381,59.835 379.682,65.136 374.381,70.436 	"/>
</g>
<g id="vertical-single">
	<polyline class="st1" points="522.672,82.472 540.964,82.472 552.051,72.92 552.051,70.287 	"/>
	<polyline class="st1" points="518.788,82.472 507.701,72.92 507.701,78.825 518.788,88.375 536.84,88.248 	"/>
	<polyline class="st1" points="540.964,89.028 552.051,79.478 552.051,85.064 540.964,93.962 518.788,93.962 506.16,82.87 	"/>
	<polyline class="st1" points="552.051,90.77 540.964,99.668 520.325,99.668 	"/>
	<polyline class="st1" points="518.247,99.699 507.16,90.149 507.16,95.999 518.247,105.51 540.423,105.51 552.197,95.916 	"/>
	<polyline class="st1" points="526.709,65.561 535.418,65.561 544,73.092 552.051,65.562 540.964,56.012 518.746,56.012 
		507.701,65.562 521.454,77.779 536.948,77.779 540.185,75.469 	"/>
	<polyline class="st1" points="517.059,64.368 526.28,72.18 535.66,72.18 	"/>
	<polyline class="st1" points="520.477,60.869 538.77,60.869 544.348,66.218 	"/>
</g>
<g id="check">
	<circle class="st4" cx="34.65" cy="211.801" r="13.467"/>
	<path id="_x3E_check-mark" class="st5" d="M33.061,217.503c-0.234,0-0.448-0.045-0.641-0.137c-0.193-0.092-0.377-0.214-0.55-0.366
		l-3.236-3.252c-0.163-0.163-0.285-0.349-0.366-0.558c-0.082-0.208-0.122-0.419-0.122-0.633s0.041-0.423,0.122-0.626
		c0.082-0.204,0.204-0.382,0.366-0.534c0.163-0.163,0.349-0.288,0.557-0.374c0.208-0.087,0.42-0.13,0.634-0.13
		s0.422,0.043,0.626,0.13c0.203,0.086,0.387,0.211,0.549,0.374l2.061,2.061l5.206-5.221c0.163-0.163,0.346-0.285,0.549-0.366
		c0.204-0.082,0.415-0.122,0.634-0.122c0.219,0,0.43,0.04,0.633,0.122c0.204,0.081,0.387,0.203,0.55,0.366
		c0.163,0.163,0.282,0.346,0.359,0.55c0.076,0.203,0.114,0.414,0.114,0.633c0,0.22-0.038,0.431-0.114,0.634
		c-0.077,0.204-0.196,0.387-0.359,0.55L34.236,217c-0.152,0.152-0.328,0.274-0.526,0.366
		C33.511,217.458,33.295,217.503,33.061,217.503z"/>
</g>
<g id="next-btn">
	<polygon class="st6" points="219.632,197.697 149.158,197.681 149.158,237.325 219.632,237.325 231.822,217.503 	"/>
</g>
<g id="cancel-x">
	<line class="st7" x1="79.722" y1="212.191" x2="90.345" y2="222.814"/>
	<line class="st7" x1="90.345" y1="212.191" x2="79.722" y2="222.814"/>
</g>
<g id="back-arrow">
	<polyline class="st7" points="115.129,222.963 110.589,217.626 115.129,212.289 	"/>
</g>
</svg>
